P3
# Created by GIMP version 2.9.3 PNM plug-in
64 48
255
31
125
202
31
126
203
31
128
204
31
129
205
31
130
205
32
131
206
32
131
207
32
132
207
32
133
207
33
134
208
32
134
208
33
135
209
33
135
210
33
136
210
33
137
210
33
137
211
33
137
211
33
138
211
34
138
212
34
139
212
34
139
212
34
139
213
34
140
213
35
140
213
35
140
213
36
141
213
37
141
214
36
140
213
36
140
213
37
141
214
36
141
214
36
141
214
36
141
214
35
141
213
36
141
214
37
141
214
37
141
213
39
141
214
39
141
213
40
141
213
39
141
213
39
141
212
41
141
212
43
142
211
45
142
211
49
143
210
53
144
209
57
145
209
59
145
208
62
146
207
67
146
206
73
147
205
81
148
203
91
150
201
97
150
199
98
151
197
102
151
195
107
152
193
112
153
191
114
153
189
113
153
188
113
154
186
111
153
186
109
153
185
31
129
204
31
130
206
32
131
206
32
132
207
32
133
208
33
134
208
33
135
209
33
136
209
33
137
210
34
137
211
34
138
211
33
138
212
34
139
212
34
139
213
34
140
213
34
140
213
34
141
214
34
141
214
35
142
214
35
142
215
35
142
215
35
142
215
36
143
215
36
143
216
36
143
216
37
144
216
38
144
216
37
144
216
38
144
216
38
144
217
37
144
216
37
144
216
36
144
216
36
144
216
37
144
216
38
144
216
39
144
216
40
145
216
40
144
216
40
144
216
39
143
215
40
144
215
43
145
214
45
145
213
48
145
213
54
147
212
58
148
211
60
148
211
62
148
210
68
149
209
73
150
207
79
150
206
88
151
204
97
152
202
103
153
199
104
153
198
108
154
196
113
155
193
117
156
190
118
155
189
117
155
188
117
155
186
114
156
185
111
155
185
32
132
207
32
133
208
32
135
209
33
135
209
33
137
210
33
138
211
33
139
211
34
139
212
34
140
212
35
141
213
34
141
214
35
142
214
35
142
215
35
142
215
35
143
216
35
143
216
35
144
217
35
145
217
36
145
217
36
145
217
36
146
217
37
146
218
37
146
218
36
147
218
38
147
218
38
147
218
38
147
218
38
147
219
39
147
219
38
147
218
38
147
218
37
147
219
37
147
218
38
147
218
40
147
218
42
148
218
41
148
218
42
147
218
40
147
218
40
147
218
41
147
217
43
147
217
46
148
216
49
148
216
53
149
215
58
149
214
61
150
213
63
150
213
68
151
211
76
152
210
81
152
209
86
153
207
95
153
205
103
155
202
110
156
199
110
156
198
115
157
195
118
157
193
122
158
189
122
158
188
122
157
187
121
157
186
119
157
185
117
156
185
32
135
208
32
137
210
33
137
211
33
138
211
34
140
212
34
141
213
35
141
213
35
142
214
35
143
214
36
143
215
36
144
216
36
144
216
36
145
217
36
145
217
36
146
218
36
146
218
36
147
218
36
147
219
37
148
219
37
148
219
39
149
220
40
149
220
40
149
220
39
149
220
39
149
220
39
149
221
40
149
221
40
150
220
39
149
220
39
149
221
38
149
220
38
149
220
39
149
220
40
149
220
43
150
220
46
150
220
44
150
220
42
149
220
41
149
220
42
149
220
44
150
219
47
149
218
50
150
218
53
150
218
56
151
217
59
151
216
66
152
215
69
152
214
75
153
213
83
154
211
89
155
209
95
155
208
101
156
205
106
156
203
111
157
201
113
158
198
118
159
196
121
159
193
124
159
190
124
159
188
124
158
188
124
158
187
123
157
186
123
157
185
33
138
211
33
140
212
34
141
212
35
141
214
35
142
214
35
143
215
35
144
215
36
145
216
36
145
217
37
146
217
37
147
218
37
147
219
37
148
219
37
148
219
37
149
220
37
149
220
37
149
221
38
150
221
40
150
221
40
150
222
41
151
222
42
151
223
42
151
223
41
151
223
40
151
223
40
151
223
41
151
223
41
151
223
40
151
223
40
151
223
40
151
223
40
151
223
41
151
223
41
151
222
44
151
222
47
152
223
46
151
222
45
151
222
45
151
222
46
151
222
50
152
221
53
152
221
56
153
220
58
153
220
59
153
219
63
153
218
72
155
216
79
156
215
86
156
213
92
157
211
97
157
211
101
157
209
107
158
206
111
159
203
113
159
201
116
160
200
121
160
196
124
161
193
128
161
190
129
161
188
128
161
187
127
160
187
128
159
186
128
159
185
34
141
212
34
142
214
35
143
215
36
144
215
36
145
216
36
146
217
37
147
217
37
147
218
37
148
219
37
149
219
37
149
220
38
149
221
38
150
221
38
150
221
38
151
222
38
151
223
39
151
223
41
152
223
43
152
224
43
152
224
43
153
224
43
153
225
44
153
225
42
153
225
43
153
225
42
153
225
42
153
225
41
153
225
41
153
225
41
153
225
42
153
225
43
153
225
43
153
225
44
153
225
46
153
225
47
153
224
48
153
224
48
153
224
49
153
224
50
153
224
54
153
223
57
154
223
59
154
222
63
154
222
65
154
221
68
155
220
76
156
218
87
158
215
95
159
213
98
159
212
101
159
211
106
160
209
110
161
206
112
161
204
113
161
203
117
162
201
122
162
197
126
163
193
131
163
189
131
162
189
130
161
188
130
161
187
131
160
186
132
160
184
35
144
215
36
145
216
36
146
217
37
147
218
37
148
218
37
149
219
38
149
220
38
150
220
38
150
221
38
151
222
39
151
223
39
152
223
39
152
224
39
153
224
40
153
225
40
153
225
41
154
225
45
154
226
46
154
227
45
155
227
45
155
227
45
155
227
46
155
227
45
155
227
46
155
227
46
155
228
45
155
228
45
155
228
44
154
228
43
154
228
44
154
227
44
154
227
45
155
227
47
154
227
48
155
227
49
155
227
50
155
226
49
155
226
51
155
226
53
155
226
55
155
226
58
155
225
61
156
224
65
156
224
70
157
222
76
158
221
83
158
219
92
160
217
99
162
215
101
161
214
102
161
213
106
162
211
111
162
208
115
163
206
116
163
204
120
164
202
124
165
197
131
165
193
134
165
190
133
164
189
132
164
188
133
162
188
134
162
186
136
162
183
36
147
216
37
147
218
38
149
219
38
150
219
39
150
220
39
151
221
39
152
222
39
152
223
39
152
224
40
153
224
40
153
225
41
154
226
41
154
226
42
154
227
42
155
228
43
155
228
45
156
228
48
156
228
49
157
229
49
157
229
48
157
229
49
157
230
49
157
229
48
157
230
49
157
230
48
157
230
47
157
230
47
156
230
47
156
230
47
156
230
46
156
229
46
156
229
47
156
229
49
156
229
51
157
229
52
157
229
52
157
228
52
157
228
54
157
228
55
156
228
56
157
227
60
157
227
66
158
226
72
158
225
78
159
223
83
160
222
88
161
220
94
162
218
100
163
216
102
163
216
104
163
215
104
163
213
110
163
211
115
164
208
118
164
206
122
165
203
127
166
198
133
166
193
137
167
190
137
166
189
136
165
188
136
164
188
137
163
185
140
163
182
37
149
219
38
150
220
39
151
221
40
152
222
41
152
223
41
153
223
41
153
225
41
154
226
41
155
227
42
155
227
42
155
228
42
156
229
43
156
229
43
157
230
44
157
230
45
158
230
48
159
230
53
159
230
55
160
231
55
160
231
55
160
231
54
160
232
53
160
232
52
159
232
51
159
232
50
159
233
49
159
232
50
159
232
49
159
232
49
158
232
49
158
231
49
159
231
50
159
231
53
159
230
56
159
230
58
159
230
58
159
230
56
159
230
57
159
230
56
159
230
58
159
229
63
159
229
71
160
227
78
161
226
87
162
223
91
163
221
94
164
220
96
164
219
100
165
218
102
164
218
106
165
216
108
165
214
112
166
212
116
166
210
119
166
208
123
167
205
131
168
197
136
168
194
141
168
190
142
168
187
140
168
187
138
166
187
141
166
184
147
167
178
39
151
221
40
152
222
41
153
223
42
154
225
42
154
225
43
155
226
43
155
228
43
156
228
43
157
229
43
157
230
43
158
230
44
158
231
45
159
231
46
159
232
47
160
232
49
160
233
53
161
233
58
161
233
60
162
233
61
162
233
61
162
234
59
162
234
58
162
234
56
161
234
55
161
234
54
161
234
52
161
234
51
161
234
50
161
234
51
161
234
52
161
233
54
161
233
56
161
233
57
161
232
59
161
232
61
161
232
61
161
231
59
161
232
59
161
231
60
161
231
63
161
231
69
162
230
77
162
228
83
163
227
90
164
225
95
166
222
97
165
222
99
166
221
100
166
221
102
166
220
107
166
218
110
166
216
116
167
213
118
168
212
121
168
209
127
169
204
134
170
198
139
170
194
146
170
189
147
170
186
146
170
185
144
169
184
148
169
180
154
169
174
41
153
224
42
154
225
43
155
226
44
156
227
44
156
228
44
158
229
45
158
230
45
159
231
45
160
232
46
160
233
46
160
233
47
161
234
48
161
234
49
162
235
51
162
235
54
163
235
57
164
235
61
164
236
63
164
236
63
164
236
63
164
236
63
164
236
62
164
237
60
164
237
60
164
237
58
164
236
57
163
236
54
163
236
54
163
236
54
163
236
56
163
236
57
163
235
60
163
235
61
163
235
60
163
235
60
163
235
61
163
234
61
163
234
65
164
233
68
164
232
71
164
232
74
164
232
79
164
230
84
165
229
90
166
227
97
168
224
99
168
224
103
168
222
102
168
222
103
168
222
107
168
221
109
168
220
115
168
217
120
169
213
125
171
209
133
172
203
137
172
198
144
172
193
149
172
188
152
172
184
153
172
182
154
173
178
161
172
172
166
172
168
43
155
226
44
156
227
45
157
228
46
158
230
47
159
231
47
160
231
47
161
232
48
161
233
48
162
235
48
162
235
48
163
236
49
163
236
50
164
237
52
164
237
55
165
237
58
165
238
61
166
238
63
166
239
63
166
239
63
166
239
63
166
239
63
166
239
63
166
239
63
166
239
62
166
239
61
166
239
61
166
238
59
165
238
58
165
238
59
165
238
60
165
238
61
165
237
62
165
237
63
166
236
62
166
237
61
166
237
63
166
236
65
166
236
68
166
235
73
166
234
75
167
234
78
166
233
79
166
233
84
167
231
90
168
229
96
169
227
100
170
226
104
170
224
105
170
224
105
170
223
107
170
222
110
170
221
116
170
218
121
171
215
129
172
210
136
174
203
142
174
198
149
174
192
153
174
187
157
175
182
161
174
178
167
175
171
168
174
168
170
174
166
45
157
227
46
158
229
48
159
230
49
160
232
50
161
234
50
162
234
51
163
235
51
164
236
51
164
237
51
165
238
52
165
239
52
166
239
53
166
240
54
167
240
57
167
241
60
168
241
62
168
242
62
168
242
63
168
242
62
169
242
64
169
242
64
169
242
64
169
242
64
169
241
63
168
242
62
168
241
64
169
241
66
168
240
63
168
240
63
168
240
63
168
240
65
169
240
66
169
239
66
169
239
66
169
239
66
169
239
68
169
239
70
169
238
73
170
238
78
170
237
80
170
236
81
170
236
82
169
235
86
170
234
92
171
231
100
172
228
103
172
227
105
172
226
104
171
226
105
171
226
110
172
223
115
172
222
118
173
219
123
173
216
134
174
209
140
176
203
148
176
196
154
177
190
158
177
185
164
176
180
169
176
174
173
177
167
172
177
166
174
178
163
47
159
228
48
160
230
49
161
231
51
163
233
51
164
236
52
166
237
53
166
238
54
166
239
54
167
240
54
167
241
55
168
241
56
169
242
56
169
243
57
169
243
59
170
243
61
170
244
62
171
244
62
171
245
63
171
245
64
171
244
65
171
244
65
171
244
65
171
244
65
171
244
63
171
244
65
171
243
67
172
243
70
172
242
69
172
242
69
172
242
68
172
242
69
172
242
68
172
242
69
172
242
71
173
242
72
173
243
72
173
242
75
173
242
79
174
241
84
174
240
86
175
238
87
175
237
89
174
236
92
174
234
100
174
231
107
175
228
108
175
227
108
175
227
107
174
227
108
174
227
114
175
223
120
175
220
126
176
217
132
177
213
139
177
207
148
178
200
157
179
191
160
179
188
164
179
183
170
178
177
174
177
169
177
178
164
178
178
163
177
177
163
51
161
228
67
166
226
98
167
200
91
158
217
58
166
238
55
169
240
57
169
242
57
170
243
57
171
243
57
171
244
59
172
244
60
172
245
60
173
246
60
173
246
62
173
246
63
174
247
63
174
247
64
174
247
66
174
247
66
175
246
68
174
246
69
175
245
68
175
245
67
174
246
67
174
246
68
174
245
70
175
244
73
175
243
74
175
243
74
176
243
73
175
245
72
176
245
73
177
246
75
177
246
79
179
246
82
179
246
85
180
246
87
181
246
91
181
245
95
181
243
97
181
242
98
181
240
100
180
238
104
180
234
110
179
231
110
179
230
110
178
229
111
177
228
113
177
227
118
177
224
124
178
221
130
179
217
137
180
212
142
180
208
150
180
203
158
181
195
165
181
188
169
181
183
174
180
177
177
180
170
180
180
166
179
180
165
181
179
163
180
178
162
145
198
241
184
219
238
198
187
150
165
158
148
97
161
223
63
172
243
60
173
245
60
174
245
60
174
246
61
175
247
63
175
247
65
176
248
65
176
248
66
176
248
66
177
248
67
177
249
68
177
249
68
177
248
69
177
248
70
177
248
71
177
247
71
177
247
72
177
247
72
177
247
70
177
247
71
177
247
74
177
246
76
178
245
77
178
246
79
179
246
79
180
247
82
181
248
87
183
249
93
184
247
99
185
246
105
187
243
112
182
229
114
178
222
118
173
211
121
173
208
121
178
217
119
185
230
114
185
238
115
185
236
117
184
233
116
182
231
117
181
230
119
180
228
122
181
225
129
181
221
133
182
217
137
182
214
142
183
210
150
182
206
158
183
199
162
184
193
169
183
187
175
183
181
179
181
171
183
181
167
185
182
166
184
181
164
184
180
162
183
180
161
248
251
251
244
233
199
175
160
123
164
152
124
162
162
147
116
161
214
72
177
246
67
179
248
68
179
248
69
179
249
72
180
249
75
180
249
75
181
250
76
181
250
76
181
250
75
181
250
75
181
250
75
181
249
76
181
249
75
181
249
78
181
248
77
181
248
77
181
248
78
181
247
77
181
248
77
181
248
78
181
247
82
182
247
86
183
247
91
185
247
97
185
245
109
182
231
125
172
205
131
156
172
109
118
122
98
92
84
131
100
65
125
97
64
107
84
58
105
84
57
113
92
61
120
103
68
121
136
136
133
178
203
131
189
230
126
188
232
127
186
229
128
185
226
130
184
223
135
184
220
140
185
215
144
186
211
148
185
209
154
185
205
162
185
198
165
185
194
171
185
187
180
184
177
184
183
168
188
184
165
188
184
165
188
183
161
187
183
160
188
183
159
198
211
230
247
245
231
195
179
142
132
136
126
154
149
124
149
147
141
120
165
212
90
180
238
111
181
220
110
180
226
98
182
236
91
183
245
88
185
249
88
185
251
86
185
250
84
185
250
82
185
250
82
185
250
83
184
250
82
184
249
83
184
249
83
184
249
84
184
249
84
184
248
84
185
248
83
185
249
85
185
248
90
186
248
97
188
248
105
189
245
123
154
172
134
113
88
137
110
79
132
101
60
100
66
37
98
63
36
113
78
41
97
72
37
84
66
34
93
75
38
113
91
43
124
104
48
131
109
59
105
95
74
131
157
165
139
192
226
134
190
231
135
189
227
139
188
222
142
189
216
147
188
213
149
187
211
151
187
209
157
187
205
162
188
199
167
187
194
174
187
186
185
185
171
189
185
165
192
187
164
192
187
164
191
186
161
190
185
161
190
186
160
179
169
141
200
201
194
224
212
175
169
156
124
155
144
121
143
149
139
175
167
136
169
165
143
179
170
140
173
163
135
163
161
139
155
160
160
124
175
222
103
189
247
97
190
251
94
190
251
92
190
250
92
189
250
91
189
250
91
189
250
92
188
249
91
188
249
90
189
249
92
188
249
92
188
249
93
189
249
95
190
249
99
191
249
108
193
248
113
173
208
120
94
65
137
109
50
87
65
36
72
51
31
75
53
33
91
66
41
107
91
47
110
97
47
109
94
46
117
97
45
112
91
43
102
84
39
115
95
44
127
105
52
124
107
66
144
158
153
148
194
224
148
195
225
149
194
220
151
192
216
153
190
212
152
190
212
155
189
209
163
190
202
168
190
198
170
190
194
181
187
182
189
186
168
193
188
164
194
189
164
195
190
163
196
190
164
197
192
165
196
191
168
184
175
124
180
163
124
176
158
124
159
143
120
151
155
151
176
176
152
196
185
151
201
183
140
176
165
131
164
158
131
161
158
133
169
157
131
160
155
145
140
169
196
108
189
244
105
194
249
103
194
250
101
193
250
100
193
250
99
192
250
100
192
249
99
192
249
99
192
250
98
192
250
99
193
250
100
193
250
104
195
250
111
197
250
122
198
247
126
162
182
127
97
55
137
107
45
76
59
37
74
92
59
86
91
52
95
86
47
116
110
48
117
116
46
121
117
46
125
111
48
128
108
48
130
108
48
134
113
48
131
107
47
122
101
47
140
120
67
140
139
120
159
190
198
161
198
216
164
196
212
163
194
209
160
193
209
163
192
206
167
193
201
173
192
197
178
192
192
188
188
175
195
191
169
195
191
167
198
192
166
202
196
168
201
196
169
201
196
169
201
196
170
226
208
154
196
173
125
172
152
118
170
156
137
207
207
197
237
229
196
234
221
179
214
197
151
184
177
141
173
170
139
166
163
135
163
158
130
163
156
130
162
155
132
153
164
163
138
176
209
121
192
237
113
196
247
112
198
248
132
203
242
146
198
226
119
194
240
109
196
248
108
197
250
109
198
250
114
199
250
121
202
250
129
202
247
136
198
233
167
174
167
167
123
69
140
102
58
88
98
70
79
80
51
86
76
50
94
92
42
102
118
51
103
136
65
112
126
53
129
125
47
134
122
53
135
121
48
130
112
47
138
118
50
143
127
52
146
135
57
133
115
55
117
105
65
165
175
163
178
199
203
177
199
204
175
197
201
175
194
198
178
194
195
185
194
191
189
194
184
197
194
173
205
199
172
203
198
173
204
199
171
204
198
171
202
197
169
203
197
168
202
197
168
251
249
235
214
191
136
177
157
120
175
153
121
171
157
135
196
185
166
224
214
181
220
207
165
206
197
163
205
199
166
199
194
161
188
180
141
176
165
128
158
153
130
175
163
132
166
163
144
171
167
151
151
178
197
150
196
216
187
204
202
192
198
188
165
181
184
129
183
216
118
198
245
124
204
250
129
204
248
133
196
229
108
153
171
68
82
82
109
102
81
167
133
73
125
114
87
94
148
115
91
143
104
88
136
84
88
84
50
83
76
43
110
137
48
103
135
50
111
130
44
107
106
44
114
116
36
123
114
41
132
120
46
151
142
50
144
134
51
127
123
44
123
110
49
144
120
66
175
168
133
191
201
193
190
198
191
193
193
180
194
193
177
197
196
180
202
198
175
205
200
175
207
202
175
206
202
174
206
201
172
204
198
170
203
197
167
202
195
166
202
196
165
242
243
234
244
237
207
198
184
135
187
166
128
176
159
126
178
160
129
182
176
166
222
212
179
228
219
185
228
223
191
231
227
200
233
228
197
218
209
174
201
198
171
214
206
177
209
202
168
200
188
148
195
182
145
185
173
147
157
168
170
172
183
177
162
176
174
159
180
185
165
198
216
181
218
236
167
195
200
93
99
92
42
38
32
66
37
20
87
64
48
98
137
119
75
155
134
68
147
117
78
157
114
84
136
82
86
96
53
91
83
49
117
112
54
114
121
39
122
128
39
109
116
35
121
118
39
114
113
35
132
133
41
139
138
44
145
145
48
140
150
42
132
139
43
132
137
47
135
125
54
182
166
123
206
200
175
205
200
176
206
200
175
207
202
176
209
205
177
209
205
176
209
204
175
207
202
173
207
200
170
205
198
168
205
198
165
203
195
165
201
195
164
222
220
198
228
232
217
239
232
196
216
201
166
212
198
162
205
194
155
200
186
150
201
195
176
235
232
206
237
228
194
228
223
195
229
226
201
235
232
205
237
233
206
238
234
208
235
231
205
228
224
195
220
212
176
208
197
159
185
178
154
208
213
198
201
210
203
211
221
218
222
231
225
204
207
195
132
129
116
54
41
34
55
29
16
75
51
35
113
126
94
84
139
103
62
105
79
90
139
94
110
148
86
99
111
61
90
114
63
94
85
54
111
134
68
106
112
54
99
111
52
104
111
52
103
112
53
122
136
57
117
131
61
121
117
53
128
127
55
126
135
57
116
135
50
128
146
61
127
148
73
117
105
56
195
183
143
216
209
181
214
209
180
215
209
181
214
208
178
212
207
176
211
205
174
209
202
172
208
200
168
208
199
166
207
197
165
204
196
164
202
195
163
215
210
185
221
216
190
225
219
189
227
219
189
227
221
191
225
220
193
224
218
193
222
215
187
221
220
201
229
224
194
220
217
191
223
220
193
222
218
191
227
224
199
230
227
202
233
230
206
233
229
205
230
228
205
230
227
201
227
222
194
219
218
193
218
216
191
199
198
177
153
150
134
70
60
47
39
29
18
62
42
23
67
49
35
91
104
82
103
121
91
96
109
75
98
125
88
97
129
93
93
98
61
101
143
90
96
135
76
90
86
55
116
138
74
86
92
52
85
120
56
89
155
78
91
140
72
97
133
65
99
125
65
109
141
69
110
146
69
93
127
59
94
148
55
113
160
56
136
166
66
117
132
62
71
61
35
119
103
72
164
152
120
192
182
151
206
198
166
214
205
173
212
203
172
211
202
170
211
202
169
210
200
165
208
198
164
206
197
163
203
195
162
216
206
171
215
205
167
212
207
184
225
219
190
231
224
190
226
218
185
224
217
187
222
214
180
226
214
172
222
203
153
218
198
144
235
211
154
219
201
156
220
212
177
227
219
185
233
224
188
239
222
178
238
218
175
243
220
183
238
225
196
228
219
193
180
176
154
88
81
64
52
43
29
59
44
21
64
48
24
59
45
30
73
72
55
81
87
63
88
109
77
92
130
86
75
86
60
97
148
97
90
109
65
80
122
78
101
120
67
79
88
55
117
107
67
86
120
60
94
106
52
86
118
56
101
161
75
103
146
62
105
142
56
101
113
58
107
138
62
105
144
57
97
136
50
103
151
50
108
145
49
116
119
56
83
72
35
53
31
12
80
52
23
91
69
45
88
69
46
99
87
64
132
114
84
204
187
138
213
201
166
212
200
165
210
198
164
207
196
163
204
196
161
204
188
126
202
183
118
191
176
123
191
180
141
213
205
159
219
201
141
212
197
132
210
189
123
212
192
125
221
201
132
226
203
130
224
201
128
217
194
123
211
191
124
224
200
136
227
206
142
234
209
138
220
194
128
206
182
122
168
144
99
82
69
50
42
37
27
42
31
13
54
40
19
61
45
24
62
45
29
51
38
31
52
40
33
73
61
45
57
49
36
96
106
67
58
55
37
94
128
75
82
94
52
72
104
63
108
98
59
80
102
56
105
84
56
122
135
72
68
61
37
85
89
43
96
124
55
100
130
55
94
119
48
100
126
47
92
96
44
95
114
47
104
129
46
92
109
40
87
90
38
92
77
40
72
54
27
58
36
17
62
36
16
72
43
15
77
51
21
130
114
78
143
127
99
141
118
80
198
174
120
214
198
157
211
196
159
208
195
158
206
195
157
201
186
132
205
187
119
203
187
110
190
171
112
202
191
119
211
193
118
212
197
123
209
191
120
210
196
124
201
184
116
196
180
111
196
177
113
210
193
120
219
198
125
222
203
128
223
201
125
209
185
115
177
158
98
149
135
85
113
109
79
57
53
38
18
11
7
37
28
14
54
40
25
55
41
27
48
35
28
46
33
27
58
42
33
51
38
32
71
54
37
71
56
39
59
44
34
81
76
46
88
79
47
73
86
46
106
79
54
105
102
54
87
62
43
121
99
62
70
61
37
70
51
34
72
61
38
97
107
45
96
99
44
87
85
40
94
97
41
83
78
34
90
83
40
106
96
41
102
87
41
100
83
40
76
56
26
64
41
19
60
39
18
55
34
15
49
33
13
54
45
29
88
70
43
180
150
102
215
189
136
212
186
142
209
184
142
211
187
143
211
188
145
250
249
237
248
242
218
230
213
157
197
180
116
210
194
123
213
193
122
193
176
111
185
170
102
189
186
122
228
209
128
229
208
130
226
204
132
232
214
139
239
221
145
235
213
142
223
194
127
193
167
108
152
134
86
145
133
89
142
136
107
87
86
72
61
55
37
44
35
27
38
27
22
55
40
29
42
30
24
81
62
35
50
37
29
47
33
27
72
52
37
45
32
26
62
43
33
63
44
33
102
75
54
79
63
41
94
67
47
128
100
68
73
52
37
117
83
58
71
50
34
66
43
31
94
65
42
80
58
37
113
90
53
120
98
57
96
79
46
114
98
64
104
76
44
125
79
47
93
76
36
61
43
19
45
31
16
53
39
20
41
27
14
31
20
10
31
20
11
42
34
21
61
39
17
184
150
92
216
185
127
223
193
141
221
190
142
211
183
138
212
183
140
203
194
146
188
178
120
189
176
113
201
189
118
208
192
117
217
200
123
215
191
125
202
181
116
223
213
142
238
220
144
232
211
131
221
195
128
224
201
133
230
207
139
231
205
137
213
187
122
220
195
136
205
182
128
129
119
89
162
150
115
135
130
103
85
83
76
96
90
71
51
41
31
37
26
21
63
43
31
53
37
25
42
29
23
53
37
28
56
38
28
49
33
25
64
43
31
53
35
27
97
69
50
74
53
36
75
50
35
95
66
45
63
42
28
124
85
54
87
63
38
74
52
31
113
82
49
158
130
81
213
188
129
193
176
127
126
110
76
188
185
154
83
74
60
84
44
31
53
36
18
93
82
55
61
49
28
125
109
70
68
59
43
90
73
38
72
60
43
163
139
89
156
128
79
215
183
118
230
201
141
223
196
140
223
194
139
216
190
138
212
187
134
190
179
111
198
182
115
200
189
120
201
187
119
211
197
121
226
198
123
229
201
140
242
217
149
242
216
149
235
211
144
222
191
123
199
174
116
215
189
128
221
194
131
215
176
112
197
170
112
190
162
107
190
167
111
215
195
138
151
139
105
140
132
106
178
176
153
75
69
54
106
97
76
50
39
28
68
53
37
49
34
24
78
58
41
51
34
23
52
39
26
73
53
35
77
54
36
66
50
34
110
90
62
73
52
34
98
67
43
125
99
65
106
82
55
175
146
102
213
186
120
197
169
106
227
203
133
239
217
148
241
221
161
175
167
129
135
123
86
217
201
149
158
154
125
131
110
63
124
105
67
170
153
104
195
177
129
210
184
117
220
198
140
217
192
123
227
208
147
226
200
136
223
198
137
229
204
139
226
201
138
221
197
135
220
196
136
222
198
137
221
197
139
204
187
114
197
182
117
197
179
115
204
188
115
200
181
112
183
162
104
208
183
120
228
204
134
232
202
128
219
192
138
231
198
135
215
183
126
239
217
168
246
227
174
240
214
157
232
203
142
233
205
138
218
189
125
169
148
98
197
180
137
216
202
162
110
101
77
185
175
145
145
137
108
119
106
82
160
147
111
112
95
69
179
168
131
83
71
55
166
156
123
165
154
120
106
91
66
146
130
95
236
222
171
139
116
82
190
161
113
241
216
162
227
203
151
248
228
180
248
221
164
239
213
147
231
205
135
241
219
146
236
213
140
165
159
120
148
134
90
194
179
123
191
182
126
187
161
96
227
203
133
220
197
125
221
199
131
236
215
146
241
222
155
237
217
149
234
214
147
230
209
142
223
203
135
231
210
143
216
196
135
221
201
135
215
197
132
216
196
134
216
195
136
222
195
127
220
195
132
235
208
141
236
208
143
232
202
133
226
197
133
236
207
146
237
209
145
244
222
166
237
214
158
222
189
128
209
174
115
209
185
127
231
201
144
232
209
149
237
214
154
247
222
162
241
218
166
250
228
177
246
223
172
190
171
129
232
217
174
240
223
174
193
171
130
241
228
186
219
204
160
237
221
173
232
213
166
217
193
144
250
235
192
244
228
183
175
154
115
246
232
186
252
235
185
240
214
162
249
222
168
252
229
177
250
225
167
250
226
171
250
229
176
250
225
169
249
224
167
247
226
166
242
221
163
174
163
120
183
165
101
226
209
139
237
218
156
172
159
122
237
217
163
219
200
134
219
200
131
223
203
136
219
201
134
219
198
135
216
196
129
216
198
132
211
195
130
207
191
128
207
193
132
200
188
129
199
186
127
207
188
130
218
196
137
223
197
131
224
201
141
233
204
146
238
209
148
233
203
134
223
192
120
177
151
95
178
158
107
188
166
114
191
170
116
168
136
82
165
135
90
192
165
111
198
170
120
206
192
146
227
208
151
232
206
147
226
196
147
240
216
168
249
222
172
248
222
177
252
234
191
246
226
172
249
228
181
246
224
170
249
231
186
251
236
191
252
236
190
249
221
164
253
235
188
248
227
174
242
218
162
249
223
169
241
211
152
243
217
159
240
212
152
235
207
145
249
225
170
241
211
152
243
214
151
243
216
152
247
222
162
245
220
164
238
213
158
192
167
120
235
211
156
249
232
186
235
211
150
221
205
158
234
212
150
244
230
186
242
230
185
240
227
183
231
218
167
220
198
135
215
195
131
207
190
127
206
190
126
199
184
121
198
182
121
202
186
126
204
190
126
203
186
128
216
194
131
211
185
128
217
189
125
213
187
125
221
194
131
236
204
135
225
184
107
154
126
67
161
135
71
165
136
68
171
141
78
164
127
59
163
127
68
165
131
67
148
107
52
156
115
59
147
118
85
162
140
86
146
119
72
146
121
77
159
135
93
171
144
104
186
165
127
193
173
133
191
171
132
188
168
131
218
191
144
226
205
162
234
211
167
236
208
160
244
225
178
244
217
160
245
218
162
244
217
163
244
223
173
243
220
168
243
215
159
230
202
144
236
211
158
239
214
154
238
209
146
244
215
154
236
207
144
234
207
149
234
207
150
217
188
127
233
201
138
237
207
144
240
212
149
243
216
153
233
213
152
219
197
144
239
221
164
232
210
149
234
217
151
237
217
149
237
214
159
237
214
153
233
214
154
229
210
145
223
202
134
222
204
134
222
205
134
214
200
137
211
197
131
230
203
135
231
202
129
227
201
133
237
207
136
239
208
140
228
186
107
106
81
54
142
147
109
148
117
64
173
156
99
167
132
62
157
126
66
163
128
64
165
125
56
165
124
54
161
124
71
161
131
67
145
113
56
145
114
58
142
111
56
136
106
55
148
120
71
134
105
61
138
109
62
132
106
62
138
109
64
142
111
66
138
110
68
141
113
72
147
122
83
157
134
94
172
145
100
164
135
95
157
132
100
158
135
97
158
139
97
191
167
122
196
171
122
208
185
134
219
197
144
228
214
170
226
204
152
235
215
168
238
220
172
242
226
179
245
226
174
244
221
166
241
220
165
239
217
157
243
217
158
244
224
172
251
240
199
251
237
192
247
230
173
233
212
146
227
203
136
235
219
146
221
206
140
222
201
136
239
215
149
237
220
149
230
211
139
233
218
144
231
216
147
234
201
133
223
194
132
231
203
138
232
202
140
236
207
145
228
186
111
123
96
63
139
148
125
141
103
64
199
201
173
172
137
78
144
154
125
225
190
124
155
121
62
156
130
70
171
132
65
151
119
61
147
114
56
150
119
60
149
116
56
151
118
57
151
119
64
146
112
58
153
118
59
145
110
56
146
111
56
145
109
55
137
104
55
136
102
53
139
104
54
129
100
58
134
99
51
148
107
48
145
104
46
145
104
47
146
107
50
144
106
52
139
104
52
140
106
54
139
105
56
142
109
59
142
108
57
146
112
61
148
113
65
147
118
79
150
125
90
145
123
93
138
116
90
149
124
90
182
166
130
185
164
116
201
182
138
208
190
145
222
208
171
229
219
179
233
224
181
240
231
180
226
209
142
224
204
134
239
223
159
243
227
163
243
224
156
243
230
161
238
224
152
246
209
143
226
185
132
228
208
146
243
210
146
215
181
127
218
177
100
141
105
61
125
117
93
130
92
52
192
185
147
163
127
74
135
155
148
246
227
179
148
116
67
159
157
132
241
210
144
226
183
106
118
95
53
133
117
61
154
120
59
150
118
60
147
114
54
151
117
60
154
120
60
154
117
57
154
116
55
149
112
56
142
108
57
139
106
57
147
110
55
142
109
61
149
112
58
155
111
49
151
107
47
153
108
49
152
111
51
151
108
50
147
106
48
145
103
46
143
100
45
140
100
46
138
100
47
134
102
59
136
96
45
133
93
42
130
92
44
129
92
43
129
91
42
123
85
38
120
84
44
118
86
49
126
97
55
133
103
57
138
106
62
139
109
68
125
106
85
134
122
112
153
138
119
169
151
114
177
161
115
182
164
119
206
192
145
224
217
184
233
228
200
245
197
125
172
131
85
177
179
156
224
192
131
205
176
116
189
149
85
139
111
64
108
92
57
112
84
56
197
203
181
176
145
87
128
138
128
238
208
150
143
106
58
144
152
144
245
224
179
240
212
155
100
81
52
123
139
103
237
209
151
231
204
145
166
145
97
183
153
94
135
109
58
145
114
56
155
118
55
151
110
51
139
104
53
144
107
53
154
115
56
140
101
48
138
95
42
155
108
47
155
109
47
156
109
48
155
110
50
156
109
48
150
105
46
148
103
47
147
103
47
147
103
47
141
100
47
145
104
49
146
104
49
142
99
46
140
99
46
135
95
46
136
98
48
133
94
44
130
93
44
128
90
43
126
89
42
122
86
40
117
81
39
108
77
38
86
58
29
109
73
32
112
81
37
112
82
38
117
86
45
122
91
46
123
91
46
124
94
54
127
97
64
221
175
105
142
125
84
190
172
119
219
195
134
242
206
146
205
157
94
163
140
91
144
136
99
138
102
61
196
201
179
178
143
85
125
136
124
240
214
157
147
113
60
122
121
98
229
199
137
221
181
117
97
76
50
109
126
101
238
217
166
238
208
154
190
174
143
224
201
153
80
68
48
78
67
42
178
142
84
192
147
78
176
130
63
157
115
53
149
111
54
146
105
48
137
93
40
143
98
44
145
99
45
149
100
45
148
100
45
151
102
45
147
99
44
146
101
46
147
101
46
146
101
46
144
100
46
139
104
60
149
104
49
141
95
44
141
97
46
144
101
48
142
100
48
139
96
45
141
101
49
139
100
46
135
96
46
130
92
44
122
87
42
98
70
37
106
68
32
128
88
39
125
91
42
125
90
42
123
86
40
120
83
38
117
81
37
108
77
35
115
84
38
181
151
92
197
169
109
209
186
135
249
217
169
252
232
181
206
169
110
158
138
93
153
138
105
131
101
59
194
183
149
171
132
75
123
131
123
241
213
156
149
114
64
141
147
133
247
229
185
245
220
166
106
86
56
93
104
91
237
217
168
247
223
172
247
220
169
230
213
166
72
65
50
69
60
44
209
167
110
237
187
121
238
193
130
247
215
158
227
189
125
201
163
100
156
120
62
133
94
41
138
96
43
155
108
48
156
110
49
152
105
47
147
103
45
147
101
44
146
98
42
148
98
42
143
96
43
136
90
41
149
102
45
146
98
43
146
100
46
147
101
47
147
99
45
146
96
42
144
96
44
142
94
43
139
94
45
135
95
46
107
75
39
101
67
34
132
86
39
140
97
43
140
102
48
137
98
45
134
95
44
133
93
44
130
91
42
107
79
42
129
104
59
201
180
123
221
196
117
192
170
129
237
211
154
248
214
158
188
139
73
138
114
76
143
135
99
140
119
82
160
150
122
136
108
68
125
136
131
245
223
174
160
123
72
141
151
142
248
231
187
247
223
168
109
87
56
85
90
72
216
189
139
235
205
149
251
231
180
231
206
156
71
63
47
65
62
49
209
181
126
244
199
132
241
201
141
252
230
181
252
227
173
246
216
161
201
171
114
108
90
54
54
42
24
87
74
39
135
122
61
168
132
73
158
114
56
140
101
52
140
101
48
138
94
41
140
98
46
145
99
44
147
99
43
147
97
42
148
101
46
152
102
46
152
102
45
152
99
43
148
98
44
143
96
45
139
95
46
119
83
43
102
67
35
116
74
35
142
93
41
143
95
42
142
95
43
141
95
43
141
98
46
140
98
44
133
94
43
105
71
35
148
100
40
220
193
128
224
186
111
199
165
95
153
134
105
182
174
130
151
107
52
107
85
62
155
167
142
162
132
91
146
140
111
124
102
71
129
116
102
225
191
140
149
111
64
135
143
134
242
214
161
240
200
137
112
90
54
89
95
82
238
213
165
252
228
183
253
238
192
232
205
149
72
62
46
68
67
61
232
218
178
251
217
164
240
214
158
251
223
167
249
225
169
245
211
154
230
204
152
172
157
120
45
39
25
61
64
39
119
135
84
223
207
157
251
224
167
242
214
159
221
197
141
194
163
106
167
132
74
143
103
58
147
105
57
144
101
44
142
96
44
144
98
46
146
97
44
145
95
43
140
94
44
140
96
45
132
90
43
103
67
35
103
65
33
137
86
38
146
96
42
146
95
41
145
96
42
144
97
45
144
98
45
146
96
42
136
92
41
123
83
35
154
116
57
238
206
142
246
217
153
245
211
140
237
204
138
228
191
118
136
94
52
145
107
58
117
133
129
122
96
53
108
107
79
121
111
79
129
107
76
138
124
99
111
85
50
134
151
152
248
237
190
239
201
142
116
102
65
89
93
74
233
205
149
249
215
157
250
228
180
232
207
155
71
61
45
65
57
46
224
196
154
253
229
183
250
224
170
251
220
163
233
198
135
243
214
157
247
216
160
178
163
129
52
46
31
53
53
37
101
113
71
221
208
161
253
237
194
251
227
177
247
224
175
235
202
149
248
224
175
242
212
158
227
201
150
164
147
107
116
90
52
138
99
49
151
106
50
148
101
45
136
91
41
123
83
39
99
67
37
92
61
34
106
68
35
136
90
42
143
95
43
141
91
41
148
101
45
143
97
44
145
95
42
144
94
43
143
96
45
121
91
42
151
112
61
243
207
151
237
214
162
246
222
166
243
222
173
231
204
138
127
105
87
190
162
88
162
170
139
152
113
60
184
181
137
154
116
66
124
117
84
141
112
74
104
84
59
119
126
135
227
214
179
241
203
143
125
111
74
91
92
72
232
210
160
252
225
169
250
219
164
230
198
141
68
58
42
59
51
37
203
178
129
253
234
187
251
224
172
250
218
160
252
224
171
253
232
188
251
232
185
181
164
127
57
50
33
56
54
36
84
90
58
217
198
146
253
229
182
248
215
162
245
208
151
245
205
141
247
207
144
245
204
142
249
226
175
184
183
155
51
55
50
42
35
24
68
56
35
101
80
47
174
145
82
133
104
60
101
76
41
96
63
29
114
73
33
134
93
41
135
91
41
137
94
44
152
108
50
138
96
46
144
99
48
145
98
46
143
97
45
119
80
39
145
95
40
162
156
121
156
145
109
166
169
165
164
167
166
137
138
135
88
91
87
114
114
85
154
165
151
149
110
64
196
183
155
162
120
67
136
143
123
232
188
121
142
106
63
79
67
61
110
106
105
181
173
142
116
114
82
100
99
75
233
202
161
246
221
173
248
217
161
230
199
145
69
59
44
65
60
48
221
210
171
254
238
194
253
230
179
251
223
166
251
225
172
248
221
170
249
224
174
184
169
131
62
54
35
63
62
39
79
81
48
204
184
129
247
215
156
244
209
146
248
208
145
241
203
141
243
199
140
249
212
148
251
234
184
189
195
178
55
61
57
28
25
20
41
36
28
80
73
57
237
221
169
242
227
176
208
182
123
192
164
111
160
126
71
127
89
47
125
86
44
145
98
46
151
111
54
140
99
50
136
93
47
137
92
46
138
93
47
136
92
49
140
97
47
110
107
81
138
127
101
138
137
125
133
133
127
130
128
120
103
101
96
100
110
107
131
144
133
122
98
69
198
187
148
163
121
65
140
146
123
246
205
143
150
105
61
92
82
62
111
94
82
135
124
98
98
85
70
103
101
71
228
186
132
249
218
166
249
227
177
234
205
148
73
62
45
58
52
39
193
180
138
251
230
180
251
227
172
248
217
160
245
215
157
243
216
156
244
214
154
181
160
118
61
54
36
76
79
47
82
88
49
193
168
117
237
201
137
210
186
124
234
207
144
242
211
151
242
209
141
245
214
153
252
236
189
195
200
183
63
65
58
28
25
21
33
29
24
78
70
52
236
211
151
242
227
178
221
201
152
248
227
178
218
201
158
197
174
132
188
167
132
173
149
112
161
141
112
148
128
100
153
127
102
153
129
108
152
125
104
152
127
107
140
97
56
67
99
131
107
118
126
116
132
133
110
109
101
110
106
94
105
101
96
100
99
99
101
105
101
94
85
64
193
191
153
155
115
60
131
138
130
246
217
159
146
103
52
91
92
84
149
126
92
136
120
88
103
87
63
98
84
67
171
162
136
242
214
164
250
215
159
240
213
162
75
64
49
61
52
37
210
191
148
252
232
195
252
228
185
244
212
153
240
208
144
248
217
155
251
221
167
191
171
128
65
57
38
74
78
48
81
86
51
191
172
132
246
221
169
232
200
133
238
207
141
237
207
147
244
216
150
252
231
178
254
246
207
200
203
185
67
65
56
28
25
21
29
26
21
68
60
43
209
183
129
251
235
184
234
209
144
239
204
139
231
200
140
219
194
139
235
211
159
216
199
138
204
194
144
205
183
113
200
171
107
170
139
87
149
117
83
151
117
82
146
102
52
