P3
# Created by GIMP version 2.9.3 PNM plug-in
4 3
255
59
157
220
58
160
227
76
155
207
128
168
198
177
186
165
125
147
144
125
134
103
168
167
138
182
160
112
172
149
105
171
142
94
165
136
87
