P2
# Created by GIMP version 2.9.3 PNM plug-in
40 64
255
68
68
68
68
68
68
68
68
68
68
68
68
68
68
68
68
68
68
68
68
68
68
68
68
68
68
68
68
68
68
68
68
68
68
68
68
68
68
68
68
68
68
68
68
68
68
68
68
68
68
68
68
68
68
68
68
68
68
68
68
68
68
68
68
68
68
68
68
68
68
68
68
68
68
68
68
68
68
68
68
68
68
68
68
68
68
68
68
68
68
68
68
68
68
68
68
68
68
68
68
68
68
68
68
68
68
68
68
68
68
68
68
68
68
68
68
68
68
68
68
68
68
68
68
68
68
68
68
68
68
68
68
68
68
68
68
68
68
68
68
68
68
68
68
68
68
68
68
68
68
68
68
68
68
68
68
68
68
68
68
68
68
68
68
68
68
68
68
68
68
68
68
68
68
68
68
68
68
68
68
68
68
68
68
68
68
68
68
68
68
68
68
68
68
68
68
68
68
68
68
68
68
68
68
68
68
68
68
68
68
68
68
68
68
68
68
68
68
68
68
68
68
68
68
68
68
68
68
68
68
68
68
68
68
68
68
68
68
68
68
68
68
68
68
68
68
68
68
68
68
68
68
68
68
68
68
68
68
68
68
68
68
68
68
68
68
68
68
68
68
68
68
68
68
68
68
68
68
68
68
68
68
68
68
68
68
68
68
68
68
68
68
68
68
68
68
68
68
68
68
68
68
68
68
68
68
68
68
68
68
68
68
68
67
65
68
68
68
68
68
68
68
68
68
68
68
68
68
68
68
68
68
68
68
68
68
68
68
68
68
68
68
68
68
68
68
68
68
68
67
65
63
60
50
38
63
68
68
68
68
60
66
68
68
68
68
68
68
68
68
68
68
68
68
68
68
68
68
68
68
68
68
68
68
68
68
66
64
62
55
40
23
8
1
0
42
67
68
68
68
16
42
60
66
68
68
68
68
68
68
68
68
68
68
68
68
68
68
68
68
68
68
68
66
63
60
50
34
17
4
0
0
0
0
0
22
66
68
68
68
0
3
19
45
61
66
68
68
68
68
68
68
68
68
68
68
68
68
68
67
65
62
58
46
30
12
2
0
0
0
0
0
0
0
0
5
62
68
68
68
0
0
0
4
22
47
61
67
68
68
68
68
68
68
68
68
67
64
60
55
42
25
9
1
0
0
0
0
0
0
0
0
0
0
0
0
47
67
68
68
0
0
0
0
0
6
26
50
62
67
68
68
68
67
64
60
53
39
22
7
1
0
0
0
0
0
0
0
0
0
0
0
0
0
0
0
29
67
68
68
0
0
0
0
0
0
0
8
30
51
61
62
59
50
36
19
5
0
0
0
0
0
0
0
0
0
0
0
0
0
0
0
0
0
0
0
12
65
68
68
0
0
0
0
0
0
0
0
1
10
29
31
17
5
0
0
0
0
0
0
0
0
0
0
0
0
0
0
0
0
0
0
0
0
0
0
2
60
68
68
0
0
0
0
0
0
0
0
0
0
0
0
0
0
0
0
0
0
0
0
0
0
0
0
0
0
0
0
0
0
0
0
0
0
0
0
1
51
68
68
0
0
0
0
0
0
0
0
0
0
0
0
0
0
0
0
0
0
0
0
0
0
0
0
0
0
0
0
0
0
0
0
1
4
8
12
18
52
68
68
35
13
1
0
0
0
0
0
0
0
0
0
0
0
0
0
0
0
0
0
0
0
0
0
0
0
2
10
21
30
5
10
21
30
40
50
62
68
68
68
161
105
63
36
13
1
0
0
0
0
0
0
0
0
0
0
0
0
0
0
4
12
24
36
48
61
76
101
129
150
52
32
61
68
68
68
68
68
68
68
254
249
218
162
107
65
37
14
1
0
0
0
0
1
7
19
31
43
55
67
83
107
135
162
190
220
245
253
254
254
165
29
49
65
68
68
68
68
68
68
194
230
253
254
249
219
165
111
70
34
7
11
49
80
99
118
129
151
193
227
246
253
254
254
254
254
254
254
254
254
243
64
32
57
67
68
68
68
68
68
48
134
224
254
254
254
254
250
220
133
35
47
166
240
236
183
129
121
164
228
252
254
254
254
254
254
254
254
254
254
254
132
25
50
63
68
68
68
68
68
0
30
146
250
254
254
254
254
254
196
65
77
205
252
171
50
3
0
24
143
236
254
254
254
254
254
254
254
254
254
254
184
22
47
57
66
68
68
68
68
0
1
95
235
254
254
254
254
254
204
72
89
214
240
98
5
0
0
0
61
205
254
254
254
254
254
254
254
254
254
254
212
23
41
53
62
68
68
68
68
0
1
91
231
254
254
254
254
254
200
69
89
214
232
86
1
0
0
0
43
197
254
254
254
254
254
254
254
254
254
254
219
25
37
53
56
67
68
68
68
0
20
130
247
254
254
254
254
254
182
54
80
207
246
124
18
0
0
3
92
218
254
254
254
254
254
254
254
254
254
252
204
22
36
53
54
64
68
68
68
31
103
206
254
254
254
254
254
244
142
27
53
181
250
205
108
49
43
80
185
245
254
254
254
254
254
254
254
254
254
244
171
18
41
53
54
60
68
68
68
153
214
253
254
254
254
242
202
146
62
5
17
89
160
209
212
177
169
212
247
254
254
254
254
254
254
254
254
254
251
231
121
14
47
54
54
57
68
68
68
254
254
254
254
247
210
144
75
27
30
49
43
23
32
83
148
212
247
254
254
254
254
254
254
254
254
254
254
253
240
209
59
16
50
54
54
55
68
68
68
254
254
253
228
164
86
34
42
83
122
145
138
112
80
43
37
88
165
231
253
254
254
254
254
254
254
254
252
242
224
138
17
29
52
54
54
54
68
68
68
254
246
201
118
48
41
88
136
173
187
187
187
186
172
138
93
47
51
119
204
247
254
254
254
254
254
248
238
224
168
47
11
44
53
54
54
54
67
68
68
229
166
78
40
77
132
173
187
187
187
187
187
187
187
187
177
140
86
46
84
172
237
250
248
244
239
231
217
160
64
8
29
52
54
54
54
54
67
68
68
126
55
53
113
164
186
187
187
187
187
187
187
187
187
187
187
187
170
123
64
63
136
210
229
226
216
180
123
51
7
20
48
54
54
54
54
55
68
68
68
44
77
143
180
187
187
187
187
187
187
187
187
187
187
187
187
187
187
184
151
90
52
102
146
135
105
67
20
4
20
44
53
54
54
54
54
56
68
68
68
101
161
186
187
187
187
187
187
187
187
187
187
187
187
187
187
187
187
187
187
170
116
57
43
28
7
1
10
27
45
53
54
54
54
54
54
60
68
68
68
172
187
187
187
187
187
187
187
187
187
187
187
187
187
187
187
187
187
187
187
187
180
134
57
8
9
25
38
50
54
54
54
54
54
54
54
64
68
68
68
187
187
187
187
187
187
187
187
187
187
187
187
187
187
187
187
187
187
187
187
187
187
185
147
69
21
39
53
54
54
54
54
54
54
54
58
68
68
68
68
187
187
187
187
187
187
187
187
187
187
187
187
187
187
187
187
187
187
187
187
187
187
187
187
155
78
29
44
53
54
54
54
54
54
56
64
68
68
68
68
187
187
187
187
187
187
187
187
187
187
187
187
187
187
187
187
187
187
187
187
187
187
187
187
187
159
79
29
45
53
54
54
54
56
62
68
68
68
68
68
187
187
187
187
187
187
187
187
187
187
187
187
187
187
187
187
187
187
187
187
187
187
187
187
187
187
160
74
30
48
54
55
59
64
68
68
68
68
68
68
187
187
187
187
187
187
187
187
187
187
187
187
187
187
187
187
187
187
187
187
187
187
187
187
187
187
187
156
60
33
57
64
66
68
68
68
68
68
68
68
187
187
187
187
187
187
187
187
187
187
187
187
187
187
187
187
187
187
187
187
187
187
187
187
187
187
187
186
145
42
45
66
68
68
68
68
68
68
68
68
187
187
187
187
187
187
187
187
187
187
187
187
187
187
187
187
187
187
187
187
187
187
187
187
187
187
187
187
184
119
29
55
67
68
68
68
68
68
68
68
187
187
187
187
187
187
187
187
187
187
187
187
187
187
187
187
187
187
187
187
187
187
187
187
187
187
187
187
187
176
67
31
64
68
68
68
68
68
68
68
131
155
174
185
187
187
187
187
187
187
187
187
187
187
187
187
187
187
187
187
187
187
187
187
187
187
187
187
187
187
137
21
46
66
68
68
68
68
68
68
38
40
50
63
81
98
115
131
145
158
172
181
186
187
187
187
187
187
187
187
187
187
187
187
187
187
187
187
187
187
179
34
21
64
68
68
68
68
68
68
123
111
96
84
76
70
63
57
52
48
47
50
58
69
79
88
97
108
116
122
130
137
143
150
154
157
160
163
164
164
161
31
4
56
67
68
68
68
68
68
167
164
158
153
148
144
140
136
132
128
121
114
107
101
96
92
87
81
77
73
69
64
59
54
41
39
40
40
39
39
38
7
0
48
67
68
68
68
68
68
168
168
168
168
168
168
168
168
168
167
166
164
161
158
155
153
150
148
146
144
141
139
137
84
18
33
50
50
48
45
42
39
35
59
68
68
68
68
68
68
167
168
168
168
168
168
168
168
168
168
168
168
168
168
168
168
168
168
168
168
168
166
110
38
37
60
67
67
66
66
65
64
63
67
68
68
68
68
68
68
132
167
168
168
168
168
168
168
168
168
168
168
168
168
168
168
168
168
168
168
161
95
38
86
98
75
69
68
68
68
68
68
68
68
68
68
68
68
68
68
56
136
167
168
168
168
168
168
168
168
168
168
168
168
168
168
168
168
168
149
76
34
110
176
184
163
118
77
68
68
68
68
68
68
68
68
68
68
68
68
8
60
139
167
168
168
168
168
168
168
168
168
168
168
168
168
168
167
128
53
35
121
184
200
201
198
189
168
115
75
68
68
68
68
68
68
68
68
68
68
56
8
62
141
167
168
168
168
168
168
168
168
168
168
168
168
160
99
33
45
135
190
200
201
201
201
201
199
189
162
104
71
68
68
68
68
68
68
68
68
146
48
8
61
140
167
168
168
168
168
168
168
168
168
167
138
64
18
64
153
194
201
201
201
201
201
201
201
201
198
188
147
85
69
68
68
68
68
68
68
196
141
43
7
59
137
167
168
168
168
168
168
167
159
102
35
15
89
169
197
201
201
201
201
201
201
201
201
201
201
201
196
179
118
72
68
68
68
68
68
201
195
138
40
5
52
131
168
168
168
167
166
131
59
14
28
117
183
199
201
201
201
201
201
201
201
201
201
201
201
201
201
200
193
154
84
69
68
68
68
201
201
196
138
40
4
41
120
166
168
147
82
25
6
54
147
193
200
201
201
201
201
201
201
201
201
201
201
201
201
201
201
201
201
197
179
106
69
68
68
201
201
201
197
143
45
2
24
73
78
31
7
14
91
172
198
201
201
201
201
201
201
201
201
201
201
201
201
201
201
201
201
201
201
201
200
192
134
71
68
201
201
201
201
197
152
56
3
4
4
2
42
134
190
200
201
201
201
201
201
201
201
201
201
201
201
201
201
201
201
201
201
201
201
201
201
201
197
159
77
201
201
201
201
201
199
169
80
10
18
94
172
198
201
201
201
201
201
201
201
201
201
201
201
201
201
201
201
201
201
201
201
201
201
201
201
201
201
199
177
201
201
201
201
201
201
200
193
168
174
197
200
201
201
201
201
201
201
201
201
201
201
201
201
201
201
201
201
201
201
201
201
201
201
201
201
201
201
201
200
201
201
201
201
201
201
201
201
200
201
201
201
201
201
201
201
201
201
201
201
201
201
201
201
201
201
201
201
201
201
201
201
201
201
201
201
201
201
201
201
