P2
# Created by GIMP version 2.9.3 PNM plug-in
37 64
255
68
68
68
68
68
68
68
68
68
68
68
68
68
68
68
68
68
68
68
68
68
68
68
68
68
68
68
68
68
68
68
68
68
68
68
68
68
68
68
68
68
68
68
68
68
68
68
68
68
68
68
68
68
68
68
68
68
68
68
68
68
68
68
68
68
68
68
68
68
68
68
68
68
68
68
68
68
68
68
68
68
68
68
68
66
67
68
68
68
68
68
68
68
68
68
68
68
68
68
68
68
68
68
68
68
68
68
68
68
68
68
68
68
68
68
68
68
68
68
67
52
11
30
56
66
68
68
68
68
68
68
68
68
68
68
68
68
68
68
68
68
68
68
68
68
68
68
68
68
68
68
68
68
68
68
68
61
20
0
0
5
29
56
66
67
68
68
68
68
68
68
68
68
68
68
68
68
68
68
68
68
68
68
68
68
68
68
68
68
68
68
68
66
43
1
0
0
0
0
6
29
57
66
67
68
68
68
68
68
68
68
68
68
68
68
68
68
68
68
68
68
68
68
68
68
68
68
68
68
60
13
0
0
0
0
0
0
0
7
32
57
65
67
68
68
68
68
68
68
68
68
68
68
68
68
68
68
68
68
68
68
68
68
68
68
65
39
0
0
0
0
0
0
0
0
0
0
8
34
58
65
67
68
68
68
68
68
68
68
68
68
68
68
68
68
68
68
68
68
68
68
68
60
11
0
0
0
0
0
0
0
0
0
0
0
1
11
37
59
66
68
68
68
68
68
68
68
68
68
68
68
68
68
68
68
68
68
68
66
39
0
0
0
0
0
0
0
0
0
0
0
0
0
0
1
13
40
60
66
68
68
68
68
68
68
68
68
68
68
68
68
68
68
68
68
61
13
0
0
0
0
0
0
0
0
0
0
0
0
0
0
0
0
2
16
42
60
66
68
68
68
68
68
68
68
68
68
68
68
68
68
67
51
1
0
0
0
0
0
0
0
0
0
0
0
0
0
0
0
0
0
0
3
19
45
61
66
68
68
68
68
68
68
68
68
68
68
68
67
45
10
5
1
0
0
0
0
0
0
0
0
0
0
0
0
0
0
0
0
0
0
4
22
47
61
67
68
68
68
68
68
68
68
68
68
68
67
56
36
17
9
4
1
0
0
0
0
0
0
0
0
0
0
0
0
0
0
0
0
0
6
26
50
62
67
68
68
68
68
68
68
68
68
68
71
89
86
69
51
36
32
31
22
1
0
0
0
0
0
0
0
0
0
0
0
0
0
0
0
8
30
51
61
62
59
68
68
68
68
68
68
84
170
168
170
179
169
155
149
122
33
12
1
0
0
0
0
0
0
0
0
0
0
0
0
0
0
1
10
29
31
17
68
68
68
68
68
69
88
194
193
213
234
213
188
187
196
162
101
55
32
12
1
0
0
0
0
0
0
0
0
0
0
0
0
0
0
0
0
68
68
68
68
68
69
88
192
195
224
236
226
203
210
237
251
250
222
161
101
57
32
12
1
0
0
0
0
0
0
0
0
0
0
0
0
0
68
68
68
68
68
69
87
189
192
220
232
226
216
232
236
251
254
254
254
249
219
160
102
60
35
13
1
0
0
0
0
0
0
0
0
0
0
68
68
68
68
68
69
87
187
188
208
218
217
218
231
234
251
254
254
254
254
254
254
249
218
161
105
63
36
13
1
0
0
0
0
0
0
0
68
68
68
68
68
69
87
183
179
182
182
193
208
221
232
251
254
254
254
254
254
254
254
253
254
249
218
162
107
65
37
14
1
0
0
0
0
68
68
68
68
68
69
85
175
156
149
144
169
183
194
230
251
254
254
254
254
249
225
187
177
194
230
253
254
249
219
165
111
70
34
7
11
49
68
68
68
68
68
68
76
125
101
84
86
169
191
204
237
253
254
254
254
251
212
112
35
14
48
134
224
254
254
254
254
250
220
133
35
47
166
68
68
68
68
68
67
61
54
50
25
41
225
254
254
254
254
254
254
254
233
129
8
0
0
0
30
146
250
254
254
254
254
254
196
65
77
205
68
68
68
68
68
66
57
54
50
21
44
226
253
254
254
254
254
254
254
207
69
0
0
0
0
1
95
235
254
254
254
254
254
204
72
89
214
68
68
68
68
68
63
54
54
49
19
41
219
249
254
254
254
254
254
254
204
63
0
0
0
0
1
91
231
254
254
254
254
254
200
69
89
214
68
68
68
68
67
59
54
54
50
20
33
196
240
254
254
254
254
254
254
225
111
5
0
0
0
20
130
247
254
254
254
254
254
182
54
80
207
68
68
68
68
66
55
54
54
50
24
24
154
230
252
254
254
254
254
254
249
193
77
23
10
31
103
206
254
254
254
254
254
244
142
27
53
181
68
68
68
68
63
54
54
54
52
32
11
94
220
240
253
254
254
254
254
254
246
205
142
124
153
214
253
254
254
254
242
202
146
62
5
17
89
68
68
68
68
60
54
54
54
53
42
5
42
181
226
244
253
254
254
254
254
254
254
254
253
254
254
254
254
247
210
144
75
27
30
49
43
23
68
68
68
67
59
54
54
54
54
49
16
13
94
205
228
242
252
254
254
254
254
254
254
254
254
254
253
228
164
86
34
42
83
122
145
138
112
68
68
68
67
57
54
54
54
54
52
34
3
25
125
207
225
237
246
252
254
254
254
254
254
254
246
201
118
48
41
88
136
173
187
187
187
186
68
68
68
67
56
54
54
54
54
54
48
19
3
31
119
191
221
228
235
240
244
246
247
247
229
166
78
40
77
132
173
187
187
187
187
187
187
68
68
68
67
56
54
54
54
54
54
53
41
13
2
22
86
146
191
217
222
226
228
228
201
126
55
53
113
164
186
187
187
187
187
187
187
187
68
68
68
67
57
54
54
54
54
54
54
52
38
14
1
6
37
79
112
137
154
162
150
94
44
77
143
180
187
187
187
187
187
187
187
187
187
68
68
68
67
59
54
54
54
54
54
54
54
52
40
20
5
0
1
10
29
44
51
44
46
101
161
186
187
187
187
187
187
187
187
187
187
187
68
68
68
68
61
54
54
54
54
54
54
54
54
53
46
33
20
9
2
0
0
4
41
119
172
187
187
187
187
187
187
187
187
187
187
187
187
68
68
68
68
65
55
54
54
54
54
54
54
54
54
54
53
46
38
30
17
6
45
129
178
187
187
187
187
187
187
187
187
187
187
187
187
187
68
68
68
68
67
59
54
54
54
54
54
54
54
54
54
54
54
53
42
18
42
130
181
187
187
187
187
187
187
187
187
187
187
187
187
187
187
68
68
68
68
68
65
57
54
54
54
54
54
54
54
54
54
54
46
21
32
120
180
187
187
187
187
187
187
187
187
187
187
187
187
187
187
187
68
68
68
68
68
68
64
58
54
54
54
54
54
54
54
54
49
28
19
89
175
187
187
187
187
187
187
187
187
187
187
187
187
187
187
187
187
68
68
68
68
68
68
68
65
60
57
55
54
54
54
54
53
40
9
43
153
187
187
187
187
187
187
187
187
187
187
187
187
187
187
187
187
187
68
68
68
68
68
68
68
68
67
65
64
62
61
60
61
55
28
7
71
183
187
187
187
187
187
187
187
187
187
187
187
187
187
187
187
187
187
68
68
68
68
68
68
68
68
68
68
68
67
67
66
67
56
17
6
65
175
187
187
187
187
187
187
187
187
187
187
187
187
187
187
187
187
187
68
68
68
68
68
68
68
68
68
68
68
68
68
68
68
59
24
1
19
74
127
167
186
187
187
187
187
187
187
187
187
187
187
187
187
187
187
68
68
68
68
68
68
68
68
68
68
68
68
68
68
68
66
46
8
1
11
30
50
75
105
131
155
174
185
187
187
187
187
187
187
187
187
187
68
68
68
68
68
68
68
68
68
68
68
68
68
68
68
68
62
35
7
38
85
68
53
44
38
40
50
63
81
98
115
131
145
158
172
181
186
68
68
68
68
68
68
68
68
68
68
68
68
68
68
68
68
69
66
39
22
87
144
140
132
123
111
96
84
76
70
63
57
52
48
47
50
58
68
68
68
68
68
68
68
68
68
68
68
68
69
79
105
131
154
168
138
46
32
108
167
168
167
164
158
153
148
144
140
136
132
128
121
114
107
68
68
68
68
68
68
68
68
68
69
81
113
146
170
181
190
196
200
192
129
29
39
118
167
168
168
168
168
168
168
168
168
168
167
166
164
161
68
68
68
68
68
68
68
72
98
139
171
185
194
200
201
201
201
201
201
186
110
19
46
126
167
168
168
168
168
168
168
168
168
168
168
168
168
68
68
68
68
68
73
109
156
182
192
200
201
201
201
201
201
201
201
201
200
178
94
13
52
132
167
168
168
168
168
168
168
168
168
168
168
168
68
68
68
72
109
161
186
197
201
201
201
201
201
201
201
201
201
201
201
201
199
169
80
9
56
136
167
168
168
168
168
168
168
168
168
168
168
68
69
98
157
187
197
201
201
201
201
201
201
201
201
201
201
201
201
201
201
201
198
161
67
8
60
139
167
168
168
168
168
168
168
168
168
168
78
140
185
197
201
201
201
201
201
201
201
201
201
201
201
201
201
201
201
201
201
201
197
153
56
8
62
141
167
168
168
168
168
168
168
168
168
175
194
201
201
201
201
201
201
201
201
201
201
201
201
201
201
201
201
201
201
201
201
201
196
146
48
8
61
140
167
168
168
168
168
168
168
168
200
201
201
201
201
201
201
201
201
201
201
201
201
201
201
201
201
201
201
201
201
201
201
201
196
141
43
7
59
137
167
168
168
168
168
168
167
201
201
201
201
201
201
201
201
201
201
201
201
201
201
201
201
201
201
201
201
201
201
201
201
201
195
138
40
5
52
131
168
168
168
167
166
131
201
201
201
201
201
201
201
201
201
201
201
201
201
201
201
201
201
201
201
201
201
201
201
201
201
201
196
138
40
4
41
120
166
168
147
82
25
201
201
201
201
201
201
201
201
201
201
201
201
201
201
201
201
201
201
201
201
201
201
201
201
201
201
201
197
143
45
2
24
73
78
31
7
14
201
201
201
201
201
201
201
201
201
201
201
201
201
201
201
201
201
201
201
201
201
201
201
201
201
201
201
201
197
152
56
3
4
4
2
42
134
201
201
201
201
201
201
201
201
201
201
201
201
201
201
201
201
201
201
201
201
201
201
201
201
201
201
201
201
201
199
169
80
10
18
94
172
198
201
201
201
201
201
201
201
201
201
201
201
201
201
201
201
201
201
201
201
201
201
201
201
201
201
201
201
201
201
201
200
193
168
174
197
200
201
201
201
201
201
201
201
201
201
201
201
201
201
201
201
201
201
201
201
201
201
201
201
201
201
201
201
201
201
201
201
201
201
200
201
201
201
201
